<?xml version="1.0" encoding="UTF-8" standalone="no"?>
<svg
   xmlns:dc="http://purl.org/dc/elements/1.1/"
   xmlns:cc="http://creativecommons.org/ns#"
   xmlns:rdf="http://www.w3.org/1999/02/22-rdf-syntax-ns#"
   xmlns:svg="http://www.w3.org/2000/svg"
   xmlns="http://www.w3.org/2000/svg"
   xmlns:sodipodi="http://sodipodi.sourceforge.net/DTD/sodipodi-0.dtd"
   xmlns:inkscape="http://www.inkscape.org/namespaces/inkscape"
   viewBox="0 0 29.683493 16"
   version="1.1"
   width="52.516949"
   height="16"
   role="img"
   id="svg4"
   sodipodi:docname="github-actions.svg"
   style="color:#586069"
   inkscape:version="0.92.4 (5da689c313, 2019-01-14)">
  <metadata
     id="metadata10">
    <rdf:RDF>
      <cc:Work
         rdf:about="">
        <dc:format>image/svg+xml</dc:format>
        <dc:type
           rdf:resource="http://purl.org/dc/dcmitype/StillImage" />
        <dc:title></dc:title>
      </cc:Work>
    </rdf:RDF>
  </metadata>
  <defs
     id="defs8" />
  <sodipodi:namedview
     pagecolor="#ffffff"
     bordercolor="#666666"
     borderopacity="1"
     objecttolerance="10"
     gridtolerance="10"
     guidetolerance="10"
     inkscape:pageopacity="0"
     inkscape:pageshadow="2"
     inkscape:window-width="2033"
     inkscape:window-height="1185"
     id="namedview6"
     showgrid="false"
     fit-margin-top="0"
     fit-margin-left="0"
     fit-margin-right="0"
     fit-margin-bottom="0"
     inkscape:zoom="14.75"
     inkscape:cx="33.600221"
     inkscape:cy="7.932203"
     inkscape:window-x="0"
     inkscape:window-y="0"
     inkscape:window-maximized="0"
     inkscape:current-layer="svg4" />
  <path
     d="m 29.600222,9.5 a 1.5,1.5 0 1 0 0,-3 1.5,1.5 0 0 0 0,3 z m 5,0 a 1.5,1.5 0 1 0 0,-3 1.5,1.5 0 0 0 0,3 z M 41.100221,8 a 1.5000001,1.5000001 0 1 1 -2.999999,0 1.5,1.5 0 0 1 2.999999,0 z"
     id="path2"
     inkscape:connector-curvature="0"
     style="fill:#586069;fill-opacity:1;fill-rule:evenodd" />
  <g
     style="color:#586069;fill:#586069;fill-opacity:1"
     id="g4541"
     transform="translate(-1.8150338)">
    <path
       id="path4530"
       d="M 8,0 C 3.58,0 0,3.58 0,8 c 0,4.42 3.58,8 8,8 4.42,0 8,-3.58 8,-8 C 16,3.58 12.42,0 8,0 Z m 4.81,12.81 a 6.72,6.72 0 0 1 -2.17,1.45 C 9.81,14.62 8.92,14.79 8,14.79 7.08,14.79 6.19,14.62 5.36,14.26 4.55,13.92 3.81,13.43 3.19,12.81 A 6.773,6.773 0 0 1 1.74,10.64 6.59,6.59 0 0 1 1.21,8 C 1.21,7.08 1.38,6.19 1.74,5.36 2.08,4.55 2.57,3.81 3.19,3.19 3.81,2.57 4.55,2.08 5.36,1.74 A 6.59,6.59 0 0 1 8,1.21 c 0.92,0 1.81,0.17 2.64,0.53 0.81,0.34 1.55,0.83 2.17,1.45 0.62,0.62 1.11,1.36 1.45,2.17 0.36,0.83 0.53,1.72 0.53,2.64 0,0.92 -0.17,1.81 -0.53,2.64 -0.34,0.81 -0.83,1.55 -1.45,2.17 z M 4,6.8 V 6.21 C 4,5.55 4.53,5.02 5.2,5.02 h 0.59 c 0.66,0 1.19,0.53 1.19,1.19 V 6.8 C 6.98,7.47 6.45,8 5.79,8 H 5.2 C 4.53,8 4,7.47 4,6.8 Z m 5,0 V 6.21 C 9,5.55 9.53,5.02 10.2,5.02 h 0.59 c 0.66,0 1.19,0.53 1.19,1.19 V 6.8 C 11.98,7.47 11.45,8 10.79,8 H 10.2 C 9.53,8 9,7.47 9,6.8 Z M 13,10 C 12.28,11.88 10.09,13 8,13 5.91,13 3.72,11.87 3,10 2.86,9.61 3.23,9 3.66,9 h 8.59 c 0.41,0 0.89,0.61 0.75,1 z"
       inkscape:connector-curvature="0"
       style="fill:#586069;fill-opacity:1;fill-rule:evenodd" />
  </g>
  <g
     style="color:#586069;fill:#586069;fill-opacity:1"
     id="g4564"
     transform="translate(-11.416728,0.5)">
    <path
       id="path4553"
       d="M 4,4 H 3 V 7 H 0 v 1 h 3 v 3 H 4 V 8 H 7 V 7 H 4 Z"
       inkscape:connector-curvature="0"
       style="fill:#586069;fill-opacity:1;fill-rule:evenodd" />
  </g>
</svg>
